<svg width="35" height="14" viewBox="0 0 35 14" fill="none" xmlns="http://www.w3.org/2000/svg">
<path d="M1.09372 2H33.9063C34.5101 2 35 1.55195 35 1C35 0.447964 34.51 0 33.9063 0H1.09372C0.489949 0 0 0.448047 0 1C0 1.55195 0.490039 2 1.09372 2Z" fill="#CEAFC8"/>
<path d="M33.9063 6H1.09372C0.489949 6 0 6.44805 0 7C0 7.55195 0.490039 8 1.09372 8H33.9063C34.5101 8 35 7.55195 35 7C35 6.44805 34.5101 6 33.9063 6Z" fill="#CEAFC8"/>
<path d="M33.4091 12H1.59087C0.712652 12 0 12.448 0 13C0 13.552 0.712784 14 1.59087 14H33.4091C34.2873 14 35 13.552 35 13C35.0001 12.448 34.2873 12 33.4091 12Z" fill="#CEAFC8"/>
</svg>
