<svg width="35" height="14" viewBox="0 0 35 14" fill="none" xmlns="http://www.w3.org/2000/svg">
<path d="M1.09372 2H33.9063C34.5101 2 35 1.55195 35 1C35 0.447964 34.51 0 33.9063 0H1.09372C0.489949 0 0 0.448047 0 1C0 1.55195 0.490039 2 1.09372 2Z" fill="#292B2A"/>
<path d="M33.9063 6H1.09372C0.489949 6 0 6.44805 0 7C0 7.55195 0.490039 8 1.09372 8H33.9063C34.5101 8 35 7.55195 35 7C35 6.44805 34.5101 6 33.9063 6Z" fill="#292B2A"/>
<path d="M33.8637 12H11.1363C10.509 12 10 12.448 10 13C10 13.552 10.5091 14 11.1363 14H33.8637C34.491 14 35 13.552 35 13C35.0001 12.448 34.491 12 33.8637 12Z" fill="#292B2A"/>
</svg>
