<svg width="22" height="15" viewBox="0 0 22 15" fill="none" xmlns="http://www.w3.org/2000/svg">
<rect width="22" height="15" rx="4" fill="#CEAFC8"/>
<path d="M9.08203 3.89062V11H7.43652V5.74609L5.81543 6.21973V4.96973L8.93066 3.89062H9.08203ZM12.6465 7.83105L11.3379 7.52344L11.7676 3.89062H15.9229V5.16992H13.1104L12.9492 6.58105C13.0273 6.53548 13.1592 6.48177 13.3447 6.41992C13.5335 6.35482 13.7419 6.32227 13.9697 6.32227C14.3213 6.32227 14.6322 6.37598 14.9023 6.4834C15.1758 6.58757 15.4069 6.74219 15.5957 6.94727C15.7845 7.14909 15.9261 7.39811 16.0205 7.69434C16.1182 7.99056 16.167 8.3291 16.167 8.70996C16.167 9.01595 16.1165 9.31217 16.0156 9.59863C15.918 9.88184 15.7666 10.1374 15.5615 10.3652C15.3597 10.5898 15.1042 10.7689 14.7949 10.9023C14.4857 11.0326 14.1195 11.0977 13.6963 11.0977C13.3805 11.0977 13.0729 11.0488 12.7734 10.9512C12.474 10.8535 12.2038 10.7135 11.9629 10.5312C11.7253 10.3457 11.5365 10.1227 11.3965 9.8623C11.2598 9.59863 11.193 9.30404 11.1963 8.97852H12.8516C12.8613 9.15104 12.902 9.30078 12.9736 9.42773C13.0452 9.55469 13.1413 9.65397 13.2617 9.72559C13.3854 9.79395 13.527 9.82812 13.6865 9.82812C13.8493 9.82812 13.9844 9.79557 14.0918 9.73047C14.1992 9.66536 14.2839 9.57585 14.3457 9.46191C14.4076 9.34798 14.4515 9.21777 14.4775 9.07129C14.5036 8.92155 14.5166 8.76367 14.5166 8.59766C14.5166 8.42188 14.4971 8.264 14.458 8.12402C14.4222 7.98405 14.3636 7.86523 14.2822 7.76758C14.2008 7.66667 14.0951 7.59017 13.9648 7.53809C13.8379 7.486 13.6849 7.45996 13.5059 7.45996C13.2682 7.45996 13.0811 7.50065 12.9443 7.58203C12.8076 7.66341 12.7083 7.74642 12.6465 7.83105Z" fill="white"/>
</svg>
